<svg width="16" height="16" viewBox="0 0 16 16" fill="none" xmlns="http://www.w3.org/2000/svg">
<path fill-rule="evenodd" clip-rule="evenodd" d="M6.40023 8L0.799886 2.39966C0.35812 1.95789 0.358122 1.24165 0.799887 0.799887C1.24165 0.358122 1.9579 0.358122 2.39966 0.799887L8 6.40023L13.6003 0.799885C14.0421 0.35812 14.7583 0.358122 15.2001 0.799887C15.6419 1.24165 15.6419 1.9579 15.2001 2.39966L9.59977 8L15.2001 13.6003C15.6419 14.0421 15.6419 14.7583 15.2001 15.2001C14.7583 15.6419 14.0421 15.6419 13.6003 15.2001L8 9.59977L2.39966 15.2001C1.95789 15.6419 1.24165 15.6419 0.799887 15.2001C0.358122 14.7583 0.358121 14.0421 0.799887 13.6003L6.40023 8Z" fill="#949494"/>
</svg>
