<svg width="352" height="353" viewBox="0 0 352 353" fill="none" xmlns="http://www.w3.org/2000/svg">
<path d="M316.731 280.742H293.413V280.918H316.731V280.742Z" fill="#EBEBEB"/>
<path d="M233.179 282.653H227.06V282.829H233.179V282.653Z" fill="#EBEBEB"/>
<path d="M292.707 274.205H279.196V274.381H292.707V274.205Z" fill="#EBEBEB"/>
<path d="M67.3385 275.388H36.9307V275.564H67.3385V275.388Z" fill="#EBEBEB"/>
<path d="M78.0659 275.388H73.6074V275.564H78.0659V275.388Z" fill="#EBEBEB"/>
<path d="M158.504 278.361H92.5557V278.537H158.504V278.361Z" fill="#EBEBEB"/>
<path d="M166.858 238.014H30.9159C28.7004 238.014 26.8975 236.211 26.8975 233.995V42.9072C26.8975 40.6917 28.7004 38.8888 30.9159 38.8888H166.858C169.072 38.8888 170.875 40.6917 170.875 42.9072V233.995C170.875 236.211 169.072 238.014 166.858 238.014ZM30.9159 39.0655C28.7969 39.0655 27.0735 40.7889 27.0735 42.9079V233.996C27.0735 236.115 28.7969 237.838 30.9159 237.838H166.858C168.976 237.838 170.699 236.115 170.699 233.996V42.9072C170.699 40.7889 168.976 39.0648 166.858 39.0648L30.9159 39.0655Z" fill="#EBEBEB"/>
<path d="M319.131 238.014H183.19C180.974 238.014 179.172 236.211 179.172 233.995V42.9072C179.172 40.6917 180.975 38.8888 183.19 38.8888H319.131C321.347 38.8888 323.149 40.6917 323.149 42.9072V233.995C323.15 236.211 321.347 238.014 319.131 238.014ZM183.19 39.0655C181.071 39.0655 179.348 40.7889 179.348 42.9079V233.996C179.348 236.115 181.071 237.838 183.19 237.838H319.131C321.25 237.838 322.973 236.115 322.973 233.996V42.9072C322.973 40.7889 321.25 39.0648 319.131 39.0648L183.19 39.0655Z" fill="#EBEBEB"/>
<path d="M352 269.411H0V269.587H352V269.411Z" fill="#EBEBEB"/>
<path d="M271.67 227.026C271.592 226.959 271.551 226.863 271.546 226.76C271.459 224.888 270.333 206.515 259.082 193.929C249.563 183.281 259.326 190.879 263.563 194.304C263.903 194.578 264.37 194.176 264.148 193.8C261.161 188.751 253.668 175.407 256.266 172.809C258.722 170.353 263.793 182.542 266.058 188.452C266.222 188.88 266.862 188.727 266.814 188.272C266.162 182.015 265.211 168.93 268.736 169.39C272.227 169.845 271.252 187.133 270.562 195.593C270.524 196.062 271.192 196.189 271.328 195.738C272.903 190.532 275.901 182.839 279.419 184.877C284.626 187.895 271.754 198.488 272.558 209.986C273.346 221.256 273.555 228.65 271.67 227.026Z" fill="#F5F5F5"/>
<path d="M278.425 228.726C278.464 228.721 278.514 228.553 278.494 228.424C276.037 212.855 292.526 201.534 304.105 195.929C306.681 194.682 309.357 193.391 311.557 191.479C307.264 191.765 302.981 193.564 298.868 194.942C298.326 195.123 298.041 194.561 298.508 194.237C303.76 190.589 318.386 177.171 314.173 173.265C312.267 171.5 301.769 185.502 299.297 188.013C298.899 188.418 298.26 188.058 298.54 187.588C301.8 182.133 302.876 164.929 299.578 165.138C298.178 165.227 297.649 173.29 296.915 176.568C295.54 182.711 292.962 188.482 290.267 194.132C290.03 194.63 289.2 194.545 289.323 194.047C290.26 190.287 290.607 179.256 285.98 180.051C282.623 180.628 283.161 187.121 283.129 190.603C283.073 196.78 282.557 203.111 279.898 208.614C278.088 212.362 275.831 229.036 278.425 228.726Z" fill="#F5F5F5"/>
<path d="M274.691 230.452C274.743 230.407 274.771 230.342 274.774 230.274C274.832 229.017 275.588 216.685 283.141 208.235C289.53 201.088 282.977 206.188 280.133 208.487C279.905 208.671 279.591 208.401 279.741 208.149C281.745 204.76 286.775 195.802 285.031 194.058C283.382 192.409 279.978 200.591 278.458 204.558C278.348 204.846 277.919 204.743 277.95 204.437C278.388 200.237 279.026 191.454 276.661 191.762C274.318 192.068 274.972 203.673 275.435 209.352C275.46 209.667 275.013 209.752 274.921 209.449C273.864 205.954 271.852 200.79 269.49 202.158C265.995 204.184 274.636 211.295 274.096 219.013C273.565 226.579 273.425 231.542 274.691 230.452Z" fill="#E6E6E6"/>
<path d="M283.204 265.125C287.093 250.623 289.654 230.2 289.654 225.169H260.645C260.645 230.2 263.206 250.623 267.095 265.125C267.81 267.79 270.232 269.637 272.992 269.637H277.306C280.066 269.637 282.489 267.79 283.204 265.125Z" fill="#E6E6E6"/>
<path d="M288.818 234.77C289.034 233.006 289.21 231.398 289.344 229.987H260.954C261.089 231.398 261.265 233.007 261.481 234.77H288.818Z" fill="#F5F5F5"/>
<path d="M42.3831 168.174H76.002V134.556H42.3831L42.3831 168.174Z" fill="#F5F5F5"/>
<path d="M48.8691 164.93H69.5161C71.3063 164.93 72.7573 163.479 72.7573 161.689V141.042C72.7573 139.252 71.3063 137.801 69.5161 137.801H48.8691C47.0789 137.801 45.6279 139.252 45.6279 141.042V161.689C45.6279 163.478 47.0796 164.93 48.8691 164.93Z" fill="#EBEBEB"/>
<path d="M64.7904 137.801C64.5954 138.723 63.7725 139.421 62.7946 139.421H55.5906C54.612 139.421 53.7897 138.723 53.5947 137.801H64.7904Z" fill="#E0E0E0"/>
<path d="M42.3831 201.793H76.002V168.174H42.3831L42.3831 201.793Z" fill="#F0F0F0"/>
<path d="M48.8691 198.548H69.5161C71.3063 198.548 72.7573 197.097 72.7573 195.307V174.661C72.7573 172.87 71.3063 171.42 69.5161 171.42H48.8691C47.0789 171.42 45.6279 172.87 45.6279 174.661V195.308C45.6279 197.097 47.0796 198.548 48.8691 198.548Z" fill="#FAFAFA"/>
<path d="M64.7904 171.42C64.5954 172.342 63.7725 173.04 62.7946 173.04H55.5906C54.612 173.04 53.7897 172.342 53.5947 171.42H64.7904Z" fill="#E0E0E0"/>
<path d="M42.3831 235.412H76.002V201.793H42.3831L42.3831 235.412Z" fill="#F5F5F5"/>
<path d="M48.8691 232.167H69.5161C71.3063 232.167 72.7573 230.716 72.7573 228.926V208.279C72.7573 206.489 71.3063 205.038 69.5161 205.038H48.8691C47.0789 205.038 45.6279 206.489 45.6279 208.279V228.926C45.6279 230.716 47.0796 232.167 48.8691 232.167Z" fill="#EBEBEB"/>
<path d="M64.7897 205.038C64.5947 205.961 63.7718 206.659 62.7939 206.659H55.5906C54.612 206.659 53.7897 205.961 53.5947 205.038H64.7897Z" fill="#E0E0E0"/>
<path d="M42.3831 269.031H76.002V235.412H42.3831L42.3831 269.031Z" fill="#F0F0F0"/>
<path d="M48.8691 265.786H69.5161C71.3063 265.786 72.7573 264.335 72.7573 262.545V241.898C72.7573 240.107 71.3063 238.657 69.5161 238.657H48.8691C47.0789 238.657 45.6279 240.107 45.6279 241.898V262.545C45.6279 264.335 47.0796 265.786 48.8691 265.786Z" fill="#FAFAFA"/>
<path d="M64.7897 238.657C64.5947 239.579 63.7718 240.278 62.7939 240.278H55.5906C54.612 240.278 53.7897 239.579 53.5947 238.657H64.7897Z" fill="#E0E0E0"/>
<path d="M38.2644 269.031H42.3828L42.3828 134.556H38.2644L38.2644 269.031Z" fill="#E6E6E6"/>
<path d="M308.836 64.8015H276.122V97.5157H308.836V64.8015Z" fill="#F0F0F0"/>
<path d="M308.836 97.5157H310.383V64.8015H308.836V97.5157Z" fill="#E6E6E6"/>
<path d="M305.876 67.7619H279.083V94.5547H305.876V67.7619Z" fill="#E6E6E6"/>
<path d="M303.242 70.3962H281.717V91.921H303.242V70.3962Z" fill="#FAFAFA"/>
<path d="M309.395 102.739H288.497V137.408H309.395V102.739Z" fill="#F0F0F0"/>
<path d="M309.393 137.408H310.382V102.739H309.393V137.408Z" fill="#E6E6E6"/>
<path d="M307.503 105.876H290.388V134.27H307.503V105.876Z" fill="#E6E6E6"/>
<path d="M305.821 108.668H292.071V131.479H305.821V108.668Z" fill="#FAFAFA"/>
<path d="M252.961 83.2535C261.064 83.2535 267.633 78.8853 267.633 73.4968C267.633 68.1083 261.064 63.7401 252.961 63.7401C244.858 63.7401 238.289 68.1083 238.289 73.4968C238.289 78.8853 244.858 83.2535 252.961 83.2535Z" fill="#E0E0E0"/>
<path d="M253.962 83.2535C262.065 83.2535 268.634 78.8853 268.634 73.4968C268.634 68.1083 262.065 63.7401 253.962 63.7401C245.859 63.7401 239.29 68.1083 239.29 73.4968C239.29 78.8853 245.859 83.2535 253.962 83.2535Z" fill="#EBEBEB"/>
<path d="M253.962 81.1239C260.296 81.1239 265.431 77.7091 265.431 73.4967C265.431 69.2844 260.296 65.8696 253.962 65.8696C247.627 65.8696 242.492 69.2844 242.492 73.4967C242.492 77.7091 247.627 81.1239 253.962 81.1239Z" fill="#FAFAFA"/>
<path d="M176.001 300.822C251.386 300.822 312.499 297.253 312.499 292.851C312.499 288.448 251.386 284.879 176.001 284.879C100.615 284.879 39.5029 288.448 39.5029 292.851C39.5029 297.253 100.615 300.822 176.001 300.822Z" fill="#F5F5F5"/>
<path d="M126.394 289.298V291.652C126.394 292.871 127.382 293.86 128.601 293.86H213.029C214.151 293.86 215.062 292.95 215.062 291.826V289.56C215.062 288.437 214.151 287.527 213.029 287.527H192.033C189.648 287.527 187.839 285.377 188.246 283.027L195.61 240.478H147.657L127.125 285.912C126.643 286.975 126.394 288.13 126.394 289.298Z" fill="#3F6EEC"/>
<path opacity="0.2" d="M126.604 287.443C126.463 288.052 126.389 288.671 126.389 289.298V291.648C126.389 292.866 127.381 293.859 128.599 293.859H213.029C214.154 293.859 215.062 292.95 215.062 291.827V289.56C215.062 288.435 214.153 287.527 213.029 287.527H192.03C191.758 287.527 191.496 287.499 191.243 287.443H126.604V287.443Z" fill="white"/>
<path d="M124.409 285.912L144.941 240.478H147.656L127.123 285.912C126.643 286.976 126.393 288.131 126.393 289.299V291.653C126.393 292.872 127.382 293.861 128.601 293.861H125.886C124.667 293.861 123.679 292.872 123.679 291.653V289.299C123.679 288.13 123.928 286.975 124.409 285.912Z" fill="#3F6EEC"/>
<g opacity="0.2">
<path d="M124.409 285.912L144.941 240.478H147.656L127.123 285.912C126.643 286.976 126.393 288.131 126.393 289.299V291.653C126.393 292.872 127.382 293.861 128.601 293.861H125.886C124.667 293.861 123.679 292.872 123.679 291.653V289.299C123.679 288.13 123.928 286.975 124.409 285.912Z" fill="black"/>
</g>
<path opacity="0.2" d="M147.655 240.478H195.609L193.729 251.335H142.749L147.655 240.478Z" fill="black"/>
<path d="M74.1924 245.246H278.792C282.923 245.246 285.978 241.897 285.617 237.766L272.682 89.9227C272.321 85.7916 268.679 82.4427 264.548 82.4427H59.9491C55.818 82.4427 52.762 85.7916 53.1238 89.9227L66.0577 237.767C66.4196 241.897 70.0614 245.246 74.1924 245.246Z" fill="#263238"/>
<path d="M284.219 221.779L285.618 237.767C285.979 241.898 282.923 245.247 278.792 245.247H74.193C70.0619 245.247 66.4202 241.898 66.059 237.767L64.6602 221.779H284.219Z" fill="#3F6EEC"/>
<path d="M71.8802 217.263H276.208C278.448 217.263 280.104 215.447 279.909 213.207L269.218 91.0148C269.022 88.7746 267.048 86.959 264.808 86.959H60.4803C58.2402 86.959 56.5837 88.7746 56.7794 91.0148L67.4696 213.207C67.666 215.447 69.64 217.263 71.8802 217.263Z" fill="#3F6EEC"/>
<path d="M71.8802 217.263H276.208C278.448 217.263 280.104 215.447 279.909 213.207L269.218 91.0148C269.022 88.7746 267.048 86.959 264.808 86.959H60.4803C58.2402 86.959 56.5837 88.7746 56.7794 91.0148L67.4696 213.207C67.666 215.447 69.64 217.263 71.8802 217.263Z" fill="#3F6EEC"/>
<path d="M55.4263 82.4436H59.9502C55.8191 82.4436 52.763 85.7925 53.1249 89.9236L66.0588 237.767C66.4199 241.898 70.0617 245.247 74.1928 245.247H69.6696C65.5385 245.247 61.8967 241.898 61.5356 237.767L48.6003 89.9229C48.2391 85.7925 51.2952 82.4436 55.4263 82.4436Z" fill="#3F6EEC"/>
<path opacity="0.2" d="M55.4263 82.4436H59.9502C55.8191 82.4436 52.763 85.7925 53.1249 89.9236L66.0588 237.767C66.4199 241.898 70.0617 245.247 74.1928 245.247H69.6696C65.5385 245.247 61.8967 241.898 61.5356 237.767L48.6003 89.9229C48.2391 85.7925 51.2952 82.4436 55.4263 82.4436Z" fill="#3F6EEC"/>
<g opacity="0.3">
<path d="M63.2236 86.959H71.0831L98.7799 217.263H90.9211L63.2236 86.959Z" fill="white"/>
<path d="M106.723 217.263L79.0264 86.959H108.554L136.252 217.263H106.723Z" fill="white"/>
</g>
<path opacity="0.6" d="M284.219 221.779L285.618 237.767C285.979 241.898 282.923 245.247 278.792 245.247H74.193C70.0619 245.247 66.4202 241.898 66.059 237.767L64.6602 221.779H284.219Z" fill="white"/>
<path opacity="0.2" d="M55.4253 82.5844H59.9492C55.8181 82.5844 52.762 85.9334 53.1239 90.0644L66.0578 237.908C66.4189 242.039 70.0607 245.388 74.1918 245.388H69.6686C65.5375 245.388 61.8957 242.039 61.5346 237.908L48.5993 90.0637C48.2381 85.9334 51.2942 82.5844 55.4253 82.5844Z" fill="white"/>
<path d="M80.8392 277.215C80.8118 277.258 81.0413 277.465 80.2605 277.516C78.3379 277.64 74.9453 277.602 73.7182 275.972C71.9674 273.643 76.1604 273.755 75.7908 272.455C75.4212 271.156 70.8776 272.34 70.0518 270.493C69.226 268.646 72.4968 268.928 72.3729 267.969C72.249 267.011 68.7698 268.345 67.6927 266.391C66.6163 264.437 69.5928 265.422 69.1296 264.612C68.6663 263.803 64.9485 260.48 66.5177 259.678C68.087 258.876 71.5696 262.356 72.7418 262.708C73.914 263.06 74.2906 259.551 75.8112 260.683C77.3319 261.816 76.1562 267.127 77.9507 267.738C79.2869 268.193 78.6061 266.316 80.2711 266.347C82.533 266.389 83.0603 273.782 80.8392 277.215Z" fill="#3F6EEC"/>
<g opacity="0.3">
<path d="M80.8392 277.215C80.8118 277.258 81.0413 277.465 80.2605 277.516C78.3379 277.64 74.9453 277.602 73.7182 275.972C71.9674 273.643 76.1604 273.755 75.7908 272.455C75.4212 271.156 70.8776 272.34 70.0518 270.493C69.226 268.646 72.4968 268.928 72.3729 267.969C72.249 267.011 68.7698 268.345 67.6927 266.391C66.6163 264.437 69.5928 265.422 69.1296 264.612C68.6663 263.803 64.9485 260.48 66.5177 259.678C68.087 258.876 71.5696 262.356 72.7418 262.708C73.914 263.06 74.2906 259.551 75.8112 260.683C77.3319 261.816 76.1562 267.127 77.9507 267.738C79.2869 268.193 78.6061 266.316 80.2711 266.347C82.533 266.389 83.0603 273.782 80.8392 277.215Z" fill="white"/>
</g>
<path d="M81.7592 279.285C83.2425 279.378 85.8382 278.11 86.8921 276.814C87.9622 275.497 85.0835 276.217 85.4221 275.161C85.7607 274.105 89.2294 275.048 89.9425 273.546C90.6557 272.044 88.1135 272.285 88.248 271.507C88.3824 270.729 90.9936 271.003 91.906 269.413C92.8176 267.822 90.4747 268.633 90.8662 267.974C91.2576 267.316 94.2686 264.604 93.0866 263.96C91.9046 263.315 89.0688 266.153 88.1473 266.443C87.2265 266.733 87.104 264.682 85.8811 265.607C84.6583 266.532 85.3545 270.838 83.9409 271.341C82.8884 271.715 83.4136 269.78 82.2013 270.221C80.0788 270.993 81.1573 279.247 81.7592 279.285Z" fill="#3F6EEC"/>
<g opacity="0.2">
<path d="M81.7592 279.285C83.2425 279.378 85.8382 278.11 86.8921 276.814C87.9622 275.497 85.0835 276.217 85.4221 275.161C85.7607 274.105 89.2294 275.048 89.9425 273.546C90.6557 272.044 88.1135 272.285 88.248 271.507C88.3824 270.729 90.9936 271.003 91.906 269.412C92.8176 267.822 90.4747 268.632 90.8662 267.974C91.2576 267.316 94.2686 264.604 93.0866 263.96C91.9046 263.315 89.0688 266.153 88.1473 266.443C87.2265 266.733 87.104 264.682 85.8811 265.607C84.6583 266.532 85.3545 270.838 83.9409 271.341C82.8884 271.715 83.4136 269.78 82.2013 270.221C80.0788 270.993 81.1573 279.247 81.7592 279.285Z" fill="white"/>
</g>
<path d="M79.097 259.821C79.035 259.915 79.5313 260.425 77.8269 260.426C73.6304 260.426 66.2328 259.841 63.6061 255.917C59.8566 250.316 68.9974 251.19 68.2293 248.154C67.4612 245.118 57.5179 247.165 55.772 242.804C54.0261 238.443 61.1506 239.572 60.9091 237.356C60.6669 235.139 53.0398 237.687 50.7504 233.043C48.461 228.4 54.9223 231.098 53.936 229.173C52.9497 227.248 44.941 219.073 48.3871 217.465C51.8331 215.857 59.3251 224.355 61.8708 225.336C64.4157 226.316 65.3415 218.32 68.6242 221.143C71.907 223.966 69.1853 235.983 73.0806 237.648C75.9818 238.888 74.5519 234.483 78.1818 234.799C83.1133 235.228 84.0433 252.271 79.097 259.821Z" fill="#3F6EEC"/>
<g opacity="0.3">
<path d="M79.097 259.821C79.035 259.915 79.5313 260.425 77.8269 260.426C73.6304 260.426 66.2328 259.841 63.6061 255.917C59.8566 250.316 68.9974 251.19 68.2293 248.154C67.4612 245.118 57.5179 247.165 55.772 242.804C54.0261 238.443 61.1506 239.572 60.9091 237.356C60.6669 235.139 53.0398 237.687 50.7504 233.043C48.461 228.4 54.9223 231.098 53.936 229.173C52.9497 227.248 44.941 219.073 48.3871 217.465C51.8331 215.857 59.3251 224.355 61.8708 225.336C64.4157 226.316 65.3415 218.32 68.6242 221.143C71.907 223.966 69.1853 235.983 73.0806 237.648C75.9818 238.888 74.5519 234.483 78.1818 234.799C83.1133 235.228 84.0433 252.271 79.097 259.821Z" fill="white"/>
</g>
<path d="M83.87 264.397C87.3132 264.614 93.3395 261.672 95.7866 258.659C98.2696 255.603 91.5879 257.274 92.3743 254.822C93.1606 252.371 101.212 254.561 102.869 251.074C104.525 247.587 98.6223 248.146 98.9349 246.341C99.2474 244.535 105.31 245.17 107.426 241.479C109.543 237.788 104.104 239.669 105.012 238.14C105.92 236.612 112.91 230.317 110.166 228.821C107.422 227.324 100.838 233.911 98.6997 234.584C96.5617 235.258 96.2773 230.496 93.4394 232.644C90.6009 234.791 92.2166 244.789 88.9352 245.955C86.4916 246.823 87.7117 242.331 84.8971 243.355C79.9691 245.147 82.4718 264.309 83.87 264.397Z" fill="#3F6EEC"/>
<g opacity="0.2">
<path d="M83.87 264.397C87.3132 264.614 93.3395 261.672 95.7866 258.659C98.2696 255.603 91.5879 257.274 92.3743 254.822C93.1606 252.371 101.212 254.561 102.869 251.074C104.525 247.587 98.6223 248.146 98.9349 246.341C99.2474 244.535 105.31 245.17 107.426 241.479C109.543 237.788 104.104 239.669 105.012 238.14C105.92 236.612 112.91 230.317 110.166 228.821C107.422 227.324 100.838 233.911 98.6997 234.584C96.5617 235.258 96.2773 230.496 93.4394 232.644C90.6009 234.791 92.2166 244.789 88.9352 245.955C86.4916 246.823 87.7117 242.331 84.8971 243.355C79.9691 245.147 82.4718 264.309 83.87 264.397Z" fill="white"/>
</g>
<path d="M81.6339 274.777C81.6409 274.777 81.6487 274.777 81.6564 274.777C81.8064 274.765 81.9183 274.633 81.9063 274.483C79.619 246.198 63.8748 234.095 63.7164 233.976C63.596 233.885 63.4249 233.91 63.3348 234.03C63.2447 234.151 63.2686 234.322 63.389 234.412C63.546 234.53 79.096 246.501 81.3621 274.527C81.3734 274.669 81.4931 274.777 81.6339 274.777Z" fill="#3F6EEC"/>
<path d="M67.2455 238.036C67.3561 238.036 67.461 237.968 67.5018 237.858C67.5539 237.717 67.4821 237.56 67.3413 237.507C67.242 237.47 64.859 236.608 60.8687 237.286C60.7202 237.311 60.6202 237.452 60.6455 237.6C60.6709 237.749 60.8117 237.85 60.9602 237.824C64.7949 237.173 67.1287 238.011 67.1519 238.019C67.1822 238.031 67.2146 238.036 67.2455 238.036Z" fill="#3F6EEC"/>
<path d="M70.102 241.577C70.2463 241.577 70.3667 241.465 70.3744 241.318C70.8067 232.81 66.1511 225.958 66.104 225.889C66.0188 225.765 65.8484 225.734 65.7245 225.82C65.6006 225.905 65.5689 226.075 65.6548 226.199C65.7006 226.266 70.2519 232.972 69.8288 241.29C69.8211 241.44 69.9372 241.569 70.0872 241.576C70.0928 241.577 70.0971 241.577 70.102 241.577Z" fill="#3F6EEC"/>
<path d="M74.6351 248.979C74.7041 248.979 74.7724 248.954 74.8252 248.901C74.9329 248.796 74.935 248.624 74.8301 248.515C74.7949 248.479 71.2848 244.958 66.4384 246.474C66.2948 246.519 66.2146 246.672 66.2596 246.816C66.3047 246.959 66.4574 247.04 66.601 246.995C71.132 245.576 74.407 248.863 74.4394 248.897C74.4929 248.952 74.564 248.979 74.6351 248.979Z" fill="#3F6EEC"/>
<path d="M76.9545 254.108C77.0566 254.108 77.1537 254.05 77.2009 253.952C77.2847 253.776 79.246 249.57 78.511 243.432C78.4927 243.283 78.3625 243.174 78.2076 243.194C78.0584 243.212 77.9514 243.348 77.969 243.497C78.6842 249.469 76.7278 253.676 76.7081 253.717C76.6433 253.853 76.7018 254.016 76.8369 254.08C76.8749 254.099 76.9151 254.108 76.9545 254.108Z" fill="#3F6EEC"/>
<path d="M81.1116 284.826C81.2531 284.826 81.3728 284.716 81.3833 284.573L82.0423 277.133C84.0993 252.39 101.791 236.227 101.97 236.067C102.082 235.967 102.091 235.794 101.991 235.682C101.889 235.57 101.718 235.561 101.606 235.661C101.425 235.823 83.5749 252.123 81.4995 277.091L80.8405 284.534C80.83 284.684 80.9426 284.815 81.0926 284.825C81.0982 284.826 81.1045 284.826 81.1116 284.826Z" fill="#3F6EEC"/>
<path d="M94.5753 245.091C94.5901 245.091 94.6049 245.09 94.6204 245.088C94.6443 245.084 94.6739 245.073 94.7013 245.06L94.7907 245.029C97.0541 244.195 99.561 243.817 101.848 243.961C102 243.975 102.128 243.856 102.137 243.706C102.147 243.556 102.032 243.426 101.882 243.416C99.5209 243.269 96.9358 243.658 94.6021 244.517L94.5098 244.551C94.4937 244.556 94.4775 244.563 94.462 244.571C94.3529 244.621 94.286 244.74 94.3064 244.864C94.3289 244.997 94.4444 245.091 94.5753 245.091Z" fill="#3F6EEC"/>
<path d="M92.04 248.185C92.0442 248.185 92.0492 248.185 92.0534 248.185C92.2041 248.178 92.3195 248.049 92.3125 247.9C91.9534 240.557 95.9888 234.693 96.0296 234.635C96.1155 234.512 96.0859 234.341 95.9627 234.255C95.8381 234.169 95.6691 234.2 95.5833 234.322C95.5417 234.382 91.4001 240.392 91.7683 247.926C91.7753 248.071 91.8957 248.185 92.04 248.185Z" fill="#3F6EEC"/>
<path d="M89.3862 252.321C89.4523 252.321 89.5192 252.297 89.572 252.248C89.6009 252.221 92.4732 249.61 96.4691 250.851C96.6134 250.897 96.7655 250.816 96.8105 250.672C96.8549 250.528 96.7746 250.375 96.631 250.33C92.3232 248.99 89.3249 251.732 89.1996 251.85C89.0898 251.952 89.0841 252.124 89.1862 252.235C89.2404 252.292 89.3129 252.321 89.3862 252.321Z" fill="#3F6EEC"/>
<path d="M85.9505 259.177C85.9899 259.177 86.0293 259.168 86.0666 259.151C86.2025 259.086 86.2609 258.924 86.1969 258.788C86.1793 258.751 84.458 255.017 85.1007 249.759C85.119 249.61 85.0127 249.474 84.8635 249.455C84.7135 249.431 84.5777 249.543 84.5601 249.693C83.8969 255.116 85.6301 258.864 85.7041 259.021C85.7505 259.119 85.8484 259.177 85.9505 259.177Z" fill="#3F6EEC"/>
<path d="M81.4011 280.424C81.4173 280.424 81.4349 280.423 81.4518 280.419C81.5997 280.392 81.6975 280.25 81.6694 280.101C79.8432 270.352 74.295 266.098 74.2386 266.056C74.1182 265.966 73.9479 265.991 73.8571 266.111C73.767 266.231 73.7916 266.402 73.9113 266.492C73.9655 266.533 79.3483 270.673 81.1336 280.201C81.1575 280.333 81.2723 280.424 81.4011 280.424Z" fill="#3F6EEC"/>
<path d="M75.6645 268.085C75.7757 268.085 75.8799 268.016 75.9207 267.906C75.9728 267.764 75.901 267.608 75.7602 267.556C75.7159 267.54 74.6528 267.153 72.8921 267.453C72.7436 267.479 72.6436 267.619 72.669 267.768C72.6936 267.916 72.8358 268.018 72.9837 267.991C74.5874 267.719 75.5617 268.064 75.5716 268.067C75.6018 268.08 75.6335 268.085 75.6645 268.085Z" fill="#3F6EEC"/>
<path d="M76.8948 269.61C77.0391 269.61 77.1595 269.498 77.1672 269.351C77.3559 265.634 75.3847 262.731 75.3009 262.609C75.2157 262.485 75.0461 262.453 74.9215 262.54C74.7976 262.625 74.7666 262.795 74.8518 262.919C74.8715 262.948 76.8019 265.797 76.6223 269.324C76.6146 269.474 76.7308 269.603 76.8807 269.61C76.8856 269.61 76.8899 269.61 76.8948 269.61Z" fill="#3F6EEC"/>
<path d="M78.8478 272.799C78.9167 272.799 78.985 272.773 79.0385 272.72C79.1462 272.616 79.1484 272.443 79.0435 272.335C78.9794 272.269 77.4482 270.737 75.2714 271.415C75.1278 271.46 75.0476 271.613 75.0926 271.757C75.1377 271.901 75.2897 271.981 75.4341 271.936C77.2954 271.353 78.6401 272.701 78.6527 272.716C78.7062 272.771 78.7766 272.799 78.8478 272.799Z" fill="#3F6EEC"/>
<path d="M79.8477 275.008C79.9491 275.008 80.047 274.95 80.0934 274.852C80.1307 274.775 80.9938 272.924 80.6721 270.236C80.6538 270.087 80.5222 269.977 80.3687 269.998C80.2194 270.016 80.1124 270.152 80.1307 270.301C80.4327 272.824 79.6098 274.6 79.6013 274.618C79.5373 274.754 79.595 274.916 79.7309 274.981C79.7682 274.999 79.8083 275.008 79.8477 275.008Z" fill="#3F6EEC"/>
<path d="M81.6108 280.662C81.7319 280.662 81.8417 280.581 81.8741 280.458C84.0108 272.348 89.6033 267.248 89.6597 267.197C89.7716 267.096 89.7808 266.924 89.6801 266.812C89.5787 266.699 89.4069 266.69 89.295 266.791C89.2373 266.842 83.5257 272.045 81.3468 280.319C81.3088 280.465 81.3954 280.614 81.5411 280.652C81.5644 280.659 81.5876 280.662 81.6108 280.662Z" fill="#3F6EEC"/>
<path d="M86.1049 270.904C86.0774 270.765 86.1598 270.631 86.2914 270.59C86.3069 270.584 86.321 270.578 86.3288 270.575C87.3531 270.198 88.49 270.028 89.5291 270.092C89.6791 270.101 89.7938 270.23 89.784 270.381C89.7748 270.532 89.6411 270.646 89.4946 270.636C88.5295 270.575 87.4728 270.734 86.5174 271.087L86.4836 271.099C86.4639 271.107 86.4435 271.114 86.4252 271.117C86.4069 271.121 86.3893 271.123 86.3717 271.123C86.2443 271.124 86.1302 271.034 86.1049 270.904ZM86.2344 270.617C86.2443 270.611 86.2689 270.601 86.2914 270.591C86.2703 270.597 86.2513 270.606 86.2344 270.617Z" fill="#3F6EEC"/>
<path d="M85.279 272.456C85.2839 272.456 85.2881 272.456 85.2924 272.456C85.443 272.449 85.5585 272.32 85.5514 272.17C85.3994 269.064 87.1073 266.578 87.1249 266.553C87.2115 266.429 87.1812 266.259 87.0573 266.173C86.9348 266.088 86.7637 266.117 86.6778 266.24C86.6032 266.347 84.8453 268.898 85.0065 272.197C85.0143 272.343 85.1347 272.456 85.279 272.456Z" fill="#3F6EEC"/>
<path d="M84.1352 274.237C84.2014 274.237 84.2682 274.213 84.3203 274.165C84.3682 274.121 85.5087 273.091 87.1399 273.597C87.2842 273.643 87.4362 273.561 87.4813 273.418C87.5263 273.274 87.4454 273.122 87.3018 273.076C85.363 272.472 84.0056 273.713 83.9486 273.766C83.8388 273.868 83.8332 274.04 83.9352 274.15C83.9894 274.209 84.062 274.237 84.1352 274.237Z" fill="#3F6EEC"/>
<path d="M82.6558 277.191C82.6946 277.191 82.734 277.183 82.772 277.165C82.9079 277.101 82.9663 276.939 82.9029 276.803C82.8952 276.787 82.1736 275.214 82.4446 272.998C82.4629 272.848 82.3566 272.712 82.2074 272.695C82.0581 272.672 81.9223 272.783 81.904 272.932C81.6125 275.312 82.3778 276.967 82.4101 277.036C82.4559 277.134 82.5538 277.191 82.6558 277.191Z" fill="#3F6EEC"/>
<path d="M77.3023 293.327H86.0122C86.9408 293.327 87.7264 292.845 87.851 292.199L90.1784 280.098H73.1367L75.4641 292.199C75.588 292.845 76.3737 293.327 77.3023 293.327Z" fill="#3F6EEC"/>
<path d="M71.7188 280.056V282.28H73.5569L75.4654 292.197C75.5858 292.844 76.3708 293.326 77.3036 293.326H86.0128C86.9399 293.326 87.7249 292.844 87.8509 292.197L89.7595 282.28H91.8757V280.056H71.7188Z" fill="#3F6EEC"/>
<path opacity="0.5" d="M71.7188 280.056V282.28H73.5569L75.4654 292.197C75.5858 292.844 76.3708 293.326 77.3036 293.326H86.0128C86.9399 293.326 87.7249 292.844 87.8509 292.197L89.7595 282.28H91.8757V280.056H71.7188Z" fill="black"/>
<path d="M223.616 47.0406H120.255V217.448H223.616V47.0406Z" fill="#3F6EEC"/>
<g opacity="0.9">
<path d="M223.616 47.0406H120.255V217.448H223.616V47.0406Z" fill="white"/>
</g>
<path d="M172.214 122.605H171.517V212.174H172.214V122.605Z" fill="#3F6EEC"/>
<path d="M218.194 167.122H186.488V168.79H218.194V167.122Z" fill="#263238"/>
<path d="M218.194 171.349H186.488V173.017H218.194V171.349Z" fill="#263238"/>
<path d="M218.194 175.577H186.488V177.245H218.194V175.577Z" fill="#263238"/>
<path d="M218.194 179.804H186.488V181.472H218.194V179.804Z" fill="#263238"/>
<path d="M200.278 158.68H186.488V160.348H200.278V158.68Z" fill="#3F6EEC"/>
<path d="M202.341 167.122H186.488V168.79H202.341V167.122Z" fill="#3F6EEC"/>
<path d="M197.25 171.349H186.488V173.017H197.25V171.349Z" fill="#3F6EEC"/>
<path d="M211.782 175.577H186.488V177.245H211.782V175.577Z" fill="#3F6EEC"/>
<path d="M205.705 179.804H186.488V181.472H205.705V179.804Z" fill="#3F6EEC"/>
<path d="M183.801 167.539H177.098V168.373H183.801V167.539Z" fill="#263238"/>
<path d="M183.801 171.766H177.098V172.6H183.801V171.766Z" fill="#263238"/>
<path d="M183.801 175.994H177.098V176.827H183.801V175.994Z" fill="#263238"/>
<path d="M183.801 180.221H177.098V181.055H183.801V180.221Z" fill="#263238"/>
<path d="M176.659 159.878L177.28 159.978C177.358 160.288 177.48 160.582 177.644 160.856L177.288 161.355C177.222 161.448 177.232 161.576 177.313 161.656L177.973 162.316C178.053 162.397 178.181 162.407 178.274 162.341L178.773 161.984C179.047 162.149 179.341 162.271 179.651 162.349L179.751 162.969C179.77 163.082 179.868 163.164 179.982 163.164H180.915C181.029 163.164 181.127 163.082 181.145 162.969L181.246 162.349C181.556 162.271 181.849 162.149 182.124 161.984L182.624 162.341C182.717 162.407 182.843 162.397 182.924 162.316L183.585 161.656C183.666 161.575 183.676 161.448 183.609 161.355L183.253 160.856C183.417 160.581 183.54 160.288 183.618 159.978L184.238 159.877C184.351 159.859 184.433 159.761 184.433 159.647V158.713C184.433 158.599 184.351 158.501 184.238 158.482L183.618 158.382C183.54 158.072 183.418 157.778 183.254 157.504L183.611 157.004C183.677 156.911 183.666 156.784 183.586 156.703L182.926 156.043C182.845 155.962 182.717 155.952 182.625 156.018L182.125 156.375C181.851 156.21 181.557 156.088 181.247 156.01L181.147 155.39C181.128 155.277 181.031 155.195 180.917 155.195H179.983C179.869 155.195 179.772 155.277 179.753 155.39L179.652 156.01C179.342 156.088 179.049 156.21 178.774 156.375L178.274 156.018C178.181 155.952 178.054 155.962 177.974 156.043L177.313 156.703C177.232 156.784 177.222 156.911 177.289 157.004L177.646 157.504C177.481 157.778 177.359 158.072 177.281 158.382L176.661 158.482C176.548 158.501 176.466 158.599 176.466 158.713V159.647C176.464 159.762 176.547 159.859 176.659 159.878ZM180.449 156.613C181.865 156.613 183.017 157.764 183.017 159.181C183.017 160.597 181.866 161.749 180.449 161.749C179.033 161.749 177.881 160.597 177.881 159.181C177.881 157.764 179.033 156.613 180.449 156.613Z" fill="#3F6EEC"/>
<path d="M180.454 196.174C181.294 196.174 181.976 195.412 181.976 194.472C181.976 193.532 181.294 192.771 180.454 192.771C179.613 192.771 178.932 193.532 178.932 194.472C178.932 195.412 179.613 196.174 180.454 196.174Z" fill="#3F6EEC"/>
<path d="M178.143 200.194V198.798C178.143 197.848 178.843 197.045 179.809 196.78L180.502 197.084L181.106 196.759C181.518 196.852 181.883 197.044 182.172 197.303C182.599 197.685 182.864 198.212 182.864 198.797V200.193L178.143 200.194Z" fill="#3F6EEC"/>
<path d="M133.994 167.384H125.171V170.592H133.994V167.384Z" fill="#3F6EEC"/>
<path d="M133.994 171.097H125.171V173.752H133.994V171.097Z" fill="#3F6EEC"/>
<path d="M131.584 168.203H131.028V167.218C131.028 166.924 130.788 166.685 130.494 166.685H128.81C128.516 166.685 128.276 166.924 128.276 167.218V168.203H127.72V167.218C127.72 166.617 128.209 166.128 128.81 166.128H130.494C131.095 166.128 131.584 166.617 131.584 167.218V168.203Z" fill="#3F6EEC"/>
<path d="M184.861 122.691H176.038V125.899H184.861V122.691Z" fill="#3F6EEC"/>
<path d="M184.861 126.515H176.038V129.06H184.861V126.515Z" fill="#3F6EEC"/>
<path d="M182.45 123.512H181.894V122.527C181.894 122.232 181.655 121.993 181.36 121.993H179.676C179.382 121.993 179.142 122.232 179.142 122.527V123.512H178.586V122.527C178.586 121.925 179.075 121.437 179.676 121.437H181.36C181.961 121.437 182.449 121.925 182.449 122.527V123.512H182.45Z" fill="#3F6EEC"/>
<path d="M134.028 125.173L132.516 126.101L130.014 127.636C129.814 127.764 129.481 127.764 129.281 127.636L126.779 126.101L125.266 125.173C125.061 125.05 125.061 124.845 125.266 124.722L129.281 122.715C129.481 122.593 129.814 122.593 130.014 122.715L134.028 124.722C134.234 124.845 134.234 125.05 134.028 125.173Z" fill="#3F6EEC"/>
<path d="M132.517 126.71L132.518 130.454C130.639 130.965 128.658 130.965 126.78 130.454L126.779 126.71L129.281 128.244C129.481 128.372 129.815 128.372 130.015 128.244L132.517 126.71Z" fill="#3F6EEC"/>
<path d="M133.794 125.067H133.516V129.786H133.794V125.067Z" fill="#3F6EEC"/>
<path d="M133.188 129.466C133.188 129.738 133.409 129.959 133.681 129.959C133.953 129.959 134.175 129.738 134.175 129.466C134.175 129.193 133.953 128.972 133.681 128.972C133.409 128.972 133.188 129.193 133.188 129.466Z" fill="#3F6EEC"/>
<path d="M200.278 197.643H186.488V199.31H200.278V197.643Z" fill="#3F6EEC"/>
<path d="M200.278 126.383H186.488V128.051H200.278V126.383Z" fill="#3F6EEC"/>
<path d="M218.194 203.458H178.459V204.293H218.194V203.458Z" fill="#263238"/>
<path d="M218.194 207.139H178.459V207.972H218.194V207.139Z" fill="#263238"/>
<path d="M186.488 210.819H178.459V211.654H186.488V210.819Z" fill="#263238"/>
<path d="M163.027 137.965H136.406V138.799H163.027V137.965Z" fill="#263238"/>
<path d="M150.778 141.646H136.406V142.48H150.778V141.646Z" fill="#263238"/>
<path d="M163.027 150.807H136.406V151.642H163.027V150.807Z" fill="#263238"/>
<path d="M150.778 154.488H136.406V155.322H150.778V154.488Z" fill="#263238"/>
<path d="M163.027 183.357H136.406V184.191H163.027V183.357Z" fill="#263238"/>
<path d="M150.778 187.038H136.406V187.872H150.778V187.038Z" fill="#263238"/>
<path d="M163.027 196.22H136.406V197.054H163.027V196.22Z" fill="#263238"/>
<path d="M150.778 199.9H136.406V200.735H150.778V199.9Z" fill="#263238"/>
<path d="M215.964 132.767H176.229V133.602H215.964V132.767Z" fill="#263238"/>
<path d="M215.964 136.448H176.229V137.282H215.964V136.448Z" fill="#263238"/>
<path d="M184.258 140.129H176.229V140.963H184.258V140.129Z" fill="#263238"/>
<path d="M150.276 126.383H136.486V128.051H150.276V126.383Z" fill="#3F6EEC"/>
<path d="M165.301 133.018H136.487V135.13H165.301V133.018Z" fill="#263238"/>
<path d="M129.651 134.78C130.175 134.78 130.6 134.356 130.6 133.832C130.6 133.308 130.175 132.884 129.651 132.884C129.128 132.884 128.703 133.308 128.703 133.832C128.703 134.356 129.128 134.78 129.651 134.78Z" fill="#263238"/>
<path d="M165.301 145.859H136.487V147.971H165.301V145.859Z" fill="#263238"/>
<path d="M129.651 147.621C130.175 147.621 130.6 147.197 130.6 146.673C130.6 146.149 130.175 145.725 129.651 145.725C129.128 145.725 128.703 146.149 128.703 146.673C128.703 147.197 129.128 147.621 129.651 147.621Z" fill="#263238"/>
<path d="M165.301 158.701H136.487V160.813H165.301V158.701Z" fill="#263238"/>
<path d="M129.651 160.462C130.175 160.462 130.6 160.038 130.6 159.514C130.6 158.99 130.175 158.566 129.651 158.566C129.128 158.566 128.703 158.99 128.703 159.514C128.703 160.038 129.128 160.462 129.651 160.462Z" fill="#263238"/>
<path d="M150.276 171.745H136.486V173.413H150.276V171.745Z" fill="#3F6EEC"/>
<path d="M165.301 178.38H136.487V180.492H165.301V178.38Z" fill="#263238"/>
<path d="M129.651 180.142C130.175 180.142 130.6 179.717 130.6 179.193C130.6 178.67 130.175 178.245 129.651 178.245C129.128 178.245 128.703 178.67 128.703 179.193C128.703 179.717 129.128 180.142 129.651 180.142Z" fill="#263238"/>
<path d="M165.301 191.221H136.487V193.333H165.301V191.221Z" fill="#263238"/>
<path d="M129.651 192.983C130.175 192.983 130.6 192.559 130.6 192.035C130.6 191.511 130.175 191.087 129.651 191.087C129.128 191.087 128.703 191.511 128.703 192.035C128.703 192.559 129.128 192.983 129.651 192.983Z" fill="#263238"/>
<path d="M165.301 204.062H136.487V206.174H165.301V204.062Z" fill="#263238"/>
<path d="M129.651 205.824C130.175 205.824 130.6 205.4 130.6 204.876C130.6 204.352 130.175 203.928 129.651 203.928C129.128 203.928 128.703 204.352 128.703 204.876C128.703 205.4 129.128 205.824 129.651 205.824Z" fill="#263238"/>
<path d="M223.616 55.1339H120.255V116.961H223.616V55.1339Z" fill="#3F6EEC"/>
<g opacity="0.8">
<path d="M223.616 55.1339H120.255V116.961H223.616V55.1339Z" fill="white"/>
</g>
<path d="M137.331 103.084C137.331 105.419 135.438 107.311 133.104 107.311C130.769 107.311 128.877 105.419 128.877 103.084C128.877 100.75 130.769 98.8574 133.104 98.8574C135.438 98.8574 137.331 100.75 137.331 103.084Z" fill="white"/>
<path d="M148.602 103.084C148.602 105.419 146.71 107.311 144.375 107.311C142.041 107.311 140.148 105.419 140.148 103.084C140.148 100.75 142.041 98.8574 144.375 98.8574C146.709 98.8574 148.602 100.75 148.602 103.084Z" fill="white"/>
<path d="M159.403 103.084C159.403 105.419 157.511 107.311 155.176 107.311C152.842 107.311 150.949 105.419 150.949 103.084C150.949 100.75 152.842 98.8573 155.176 98.8573C157.511 98.8573 159.403 100.75 159.403 103.084Z" fill="white"/>
<path d="M169.97 103.084C169.97 105.419 168.078 107.311 165.743 107.311C163.409 107.311 161.517 105.419 161.517 103.084C161.517 100.75 163.409 98.8573 165.743 98.8573C168.078 98.8573 169.97 100.75 169.97 103.084Z" fill="white"/>
<path d="M134.18 102.237H131.987V103.098H134.18V102.237Z" fill="#263238"/>
<path d="M133.339 105.583H132.478V101.901C132.478 101.212 133.038 100.652 133.726 100.652H134.135V101.513H133.726C133.512 101.513 133.339 101.687 133.339 101.901V105.583Z" fill="#263238"/>
<path d="M154.22 101.761H153.359V104.557H154.22V101.761Z" fill="#263238"/>
<path d="M155.549 101.825H154.688V104.557H155.549V101.825Z" fill="#263238"/>
<path d="M156.584 104.56C156.584 104.551 156.584 104.524 156.588 104.483C156.671 103.292 156.462 102.903 156.401 102.864C155.893 102.834 155.556 103.126 155.435 103.256L154.805 102.669C155.01 102.448 155.583 101.939 156.47 102.008C157.231 102.063 157.56 102.916 157.447 104.543L156.584 104.56Z" fill="#263238"/>
<path d="M153.989 101.534H153.573C153.448 101.534 153.347 101.432 153.347 101.308V100.89C153.347 100.766 153.448 100.664 153.573 100.664H153.989C154.113 100.664 154.215 100.766 154.215 100.89V101.308C154.215 101.432 154.114 101.534 153.989 101.534Z" fill="#263238"/>
<path d="M144.439 104.28C143.762 104.28 143.212 103.729 143.212 103.052C143.212 102.375 143.762 101.824 144.439 101.824C145.116 101.824 145.667 102.375 145.667 103.052C145.667 103.729 145.116 104.28 144.439 104.28ZM144.439 102.254C144 102.254 143.642 102.612 143.642 103.051C143.642 103.49 144 103.848 144.439 103.848C144.878 103.848 145.236 103.49 145.236 103.051C145.236 102.613 144.878 102.254 144.439 102.254Z" fill="#263238"/>
<path d="M145.41 105.619H143.466C142.586 105.619 141.87 104.903 141.87 104.023V102.079C141.87 101.198 142.586 100.482 143.466 100.482H145.41C146.29 100.482 147.006 101.198 147.006 102.079V104.023C147.006 104.903 146.29 105.619 145.41 105.619ZM143.466 100.914C142.823 100.914 142.3 101.437 142.3 102.08V104.023C142.3 104.666 142.823 105.189 143.466 105.189H145.41C146.053 105.189 146.576 104.666 146.576 104.023V102.08C146.576 101.437 146.053 100.914 145.41 100.914H143.466Z" fill="#263238"/>
<path d="M164.104 104.624C164.034 104.624 163.965 104.597 163.914 104.545C163.859 104.49 163.831 104.414 163.835 104.339V102.003C163.835 101.854 163.956 101.734 164.104 101.734H165.252C165.68 101.734 166.028 102.082 166.028 102.51C166.028 102.724 165.941 102.919 165.799 103.06C166.03 103.211 166.183 103.473 166.183 103.768C166.183 103.996 166.094 104.211 165.931 104.371C165.769 104.531 165.555 104.61 165.326 104.614C164.496 104.6 164.254 104.608 164.182 104.612C164.156 104.621 164.13 104.624 164.104 104.624ZM164.533 104.068C164.729 104.068 164.989 104.071 165.334 104.076C165.402 104.075 165.494 104.046 165.553 103.988C165.612 103.93 165.645 103.852 165.645 103.768C165.645 103.599 165.507 103.461 165.337 103.461H164.373V104.068C164.421 104.068 164.474 104.068 164.533 104.068ZM164.373 102.748H165.252C165.383 102.748 165.49 102.641 165.49 102.51C165.49 102.379 165.383 102.272 165.252 102.272H164.373V102.748Z" fill="#263238"/>
<path d="M168.023 103.678H166.566C166.418 103.678 166.298 103.558 166.297 103.411C166.297 103.359 166.303 102.892 166.629 102.595C166.762 102.473 166.999 102.336 167.38 102.374C167.709 102.405 167.958 102.529 168.119 102.742C168.353 103.05 168.296 103.416 168.288 103.456C168.265 103.584 168.153 103.678 168.023 103.678ZM166.892 103.14H167.73C167.72 103.114 167.706 103.088 167.687 103.065C167.62 102.979 167.499 102.926 167.328 102.91C167.18 102.895 167.069 102.923 166.992 102.993C166.948 103.033 166.916 103.085 166.892 103.14Z" fill="#263238"/>
<path d="M167.329 104.593C166.829 104.593 166.318 104.233 166.307 103.43L166.304 103.161L166.842 103.154L166.845 103.423C166.853 104.008 167.217 104.054 167.329 104.054C167.529 104.054 167.618 104.006 167.653 103.977L167.65 103.789L168.188 103.767L168.192 104.036C168.193 104.063 168.189 104.105 168.181 104.132C168.168 104.179 168.024 104.593 167.329 104.593Z" fill="#263238"/>
<path d="M167.246 76.4645H129.711V78.1323H167.246V76.4645Z" fill="#263238"/>
<path d="M148.478 82.4069H129.711V84.0747H148.478V82.4069Z" fill="#263238"/>
<path d="M167.246 88.7668H129.711V89.6011H167.246V88.7668Z" fill="#263238"/>
<path d="M148.478 94.71H129.711V95.5436H148.478V94.71Z" fill="#263238"/>
<path d="M135.524 66.7656V72.2941H133.961V70.1377H131.828V72.2941H130.265V66.7656H131.828V68.8424H133.961V66.7656H135.524Z" fill="#3F6EEC"/>
<path d="M140.91 70.5328H137.799C137.925 70.9671 138.296 71.2199 138.849 71.2199C139.268 71.2199 139.544 71.1009 139.836 70.8489L140.626 71.6704C140.216 72.1287 139.615 72.3653 138.801 72.3653C137.277 72.3653 136.29 71.4255 136.29 70.1456C136.29 68.8587 137.293 67.9428 138.644 67.9428C139.907 67.9428 140.934 68.7481 140.934 70.1618C140.934 70.2723 140.918 70.4145 140.91 70.5328ZM137.775 69.7429H139.528C139.45 69.293 139.118 69.0086 138.652 69.0086C138.186 69.0086 137.862 69.293 137.775 69.7429Z" fill="#3F6EEC"/>
<path d="M141.629 66.4334H143.13V72.2935H141.629V66.4334Z" fill="#3F6EEC"/>
<path d="M144.102 66.4334H145.602V72.2935H144.102V66.4334Z" fill="#3F6EEC"/>
<path d="M146.305 70.1456C146.305 68.8587 147.323 67.9428 148.722 67.9428C150.135 67.9428 151.138 68.8587 151.138 70.1456C151.138 71.4409 150.135 72.3653 148.722 72.3653C147.324 72.3653 146.305 71.4409 146.305 70.1456ZM149.622 70.1456C149.622 69.4979 149.235 69.1346 148.722 69.1346C148.216 69.1346 147.821 69.4979 147.821 70.1456C147.821 70.8017 148.216 71.172 148.722 71.172C149.235 71.1727 149.622 70.8017 149.622 70.1456Z" fill="#3F6EEC"/>
<path d="M151.644 71.5352C151.644 71.0691 152.015 70.7221 152.544 70.7221C153.073 70.7221 153.437 71.0698 153.437 71.5352C153.437 71.9935 153.073 72.3645 152.544 72.3645C152.015 72.3652 151.644 71.9935 151.644 71.5352ZM151.651 66.7656H153.436L153.136 70.2807H151.943L151.651 66.7656Z" fill="#3F6EEC"/>
<path d="M223.616 47.0406H120.255V55.1331H223.616V47.0406Z" fill="#3F6EEC"/>
<g opacity="0.2">
<path d="M186.282 96.8882C189.561 92.8979 188.466 88.3473 188.466 88.3473H187.244L185.168 89.9242C185.509 91.9715 185.916 94.4728 186.282 96.8882Z" fill="black"/>
</g>
<path d="M187.347 117.103C187.347 117.103 187.447 109.664 187.309 105.748C187.291 105.233 187.268 104.776 187.242 104.409C186.938 100.193 184.976 88.7442 184.505 86.0296C184.431 85.6142 184.59 85.1989 184.906 84.9243C185.369 84.5237 185.944 84.1971 186.605 83.945C187.991 83.4037 189.757 83.1622 191.682 83.1178C192.931 83.0883 194.244 83.1361 195.561 83.2438C195.832 83.2664 196.106 83.2882 196.377 83.3178C197.597 83.4325 198.81 83.5923 199.966 83.774C200.482 83.8521 200.987 83.9338 201.476 84.019C202.236 84.1527 202.959 84.2893 203.631 84.4266C205.144 84.7307 206.386 85.02 207.168 85.2165C207.19 85.22 207.216 85.2242 207.239 85.2312C207.454 85.2833 207.643 85.3981 207.788 85.5502C207.788 85.5537 207.791 85.5537 207.791 85.5537C207.977 85.7578 208.088 86.0246 208.088 86.314L208.125 102.791L208.133 106.214L208.155 117.169L187.347 117.103Z" fill="#3F6EEC"/>
<g opacity="0.2">
<path d="M199.684 87.7763C199.667 88.2233 199.29 88.5725 198.843 88.5556C198.396 88.5387 198.047 88.1621 198.064 87.715C198.081 87.268 198.458 86.9188 198.905 86.9357C199.352 86.9526 199.701 87.3292 199.684 87.7763Z" fill="black"/>
</g>
<g opacity="0.2">
<path d="M200.563 94.6995C200.546 95.1465 200.17 95.4957 199.722 95.4788C199.275 95.4619 198.926 95.0853 198.943 94.6382C198.96 94.1912 199.337 93.842 199.784 93.8589C200.231 93.8758 200.58 94.2524 200.563 94.6995Z" fill="black"/>
</g>
<g opacity="0.2">
<path d="M201.057 103.071C201.04 103.518 200.664 103.867 200.216 103.85C199.769 103.833 199.42 103.457 199.437 103.009C199.454 102.562 199.831 102.213 200.278 102.23C200.725 102.247 201.074 102.624 201.057 103.071Z" fill="black"/>
</g>
<g opacity="0.2">
<path d="M200.741 111.411C200.724 111.858 200.348 112.207 199.9 112.19C199.453 112.173 199.104 111.797 199.121 111.35C199.138 110.903 199.514 110.553 199.961 110.57C200.409 110.588 200.758 110.964 200.741 111.411Z" fill="black"/>
</g>
<path d="M194.695 82.083L195.739 83.4861L197.771 84.8315L198.987 85.1363L200.881 84.5696L201.711 84.483L201.88 84.3534C199.985 82.9842 200.119 80.7426 200.817 78.8137L195.49 73.2324C195.71 75.6485 195.765 79.5803 194.695 82.083Z" fill="#CE7A63"/>
<g opacity="0.3">
<path d="M200.35 80.9769C200.385 80.2525 200.562 79.5126 200.815 78.8136L197.554 75.397L195.576 74.4797C195.619 75.3168 195.634 76.2454 195.597 77.1908C196.267 78.5608 197.628 80.2856 200.35 80.9769Z" fill="black"/>
</g>
<path d="M202.171 66.3262C202.171 66.3262 205.506 66.9569 204.959 64.4085C204.959 64.4085 204.764 65.1519 201.104 64.8034C197.445 64.4549 202.171 66.3262 202.171 66.3262Z" fill="#263238"/>
<g opacity="0.9">
<path d="M202.171 66.3262C202.171 66.3262 205.506 66.9569 204.959 64.4085C204.959 64.4085 204.764 65.1519 201.104 64.8034C197.445 64.4549 202.171 66.3262 202.171 66.3262Z" fill="black"/>
</g>
<path d="M194.741 69.8523C194.842 73.5504 194.718 75.7181 196.519 77.6703C199.224 80.6137 203.837 79.0649 204.835 75.4217C205.739 72.1171 205.414 66.6407 201.852 65.0539C199.315 63.9078 196.33 65.0356 195.184 67.5721C194.861 68.2873 194.71 69.0681 194.741 69.8523Z" fill="#CE7A63"/>
<path d="M200.478 71.1105C200.468 71.4125 200.617 71.6617 200.815 71.6674C201.012 71.673 201.178 71.4364 201.188 71.1337C201.197 70.8317 201.047 70.586 200.85 70.5811C200.652 70.5762 200.486 70.8127 200.478 71.1105Z" fill="#263238"/>
<path d="M203.87 71.2246C203.862 71.5224 204.011 71.7723 204.208 71.7772C204.405 71.7828 204.571 71.5463 204.579 71.2478C204.588 70.95 204.44 70.6966 204.242 70.6909C204.044 70.6853 203.88 70.9225 203.87 71.2246Z" fill="#263238"/>
<path d="M199.357 69.6638C199.327 69.6624 199.297 69.6553 199.27 69.6419C199.197 69.5786 199.186 69.4695 199.244 69.3927C199.593 68.9457 200.136 68.6922 200.703 68.7127C200.8 68.7225 200.871 68.8091 200.862 68.907C200.852 69.0048 200.765 69.0759 200.667 69.0661C200.218 69.0548 199.791 69.259 199.518 69.6166C199.477 69.6588 199.416 69.6771 199.357 69.6638Z" fill="#263238"/>
<path d="M205.235 69.8982C205.176 69.8891 205.125 69.8496 205.102 69.794C204.933 69.3815 204.577 69.0745 204.144 68.9668C204.048 68.9513 203.983 68.8605 203.998 68.7648C204.014 68.669 204.105 68.6036 204.2 68.619C204.756 68.7451 205.217 69.1316 205.437 69.6574C205.476 69.7433 205.439 69.8447 205.353 69.8848C205.351 69.8855 205.35 69.8862 205.348 69.887C205.313 69.9038 205.273 69.9081 205.235 69.8982Z" fill="#263238"/>
<path d="M202.27 75.5014C202.471 75.5232 202.675 75.5274 202.878 75.5126C202.936 75.5091 202.98 75.4591 202.977 75.4014C202.977 75.4 202.977 75.3993 202.977 75.3979C202.973 75.3401 202.924 75.2965 202.867 75.2993C201.96 75.3789 201.068 75.024 200.462 74.3433C200.427 74.2954 200.36 74.2855 200.312 74.32C200.264 74.3552 200.255 74.4221 200.289 74.47C200.791 75.0571 201.501 75.4267 202.27 75.5014Z" fill="#263238"/>
<path d="M203.009 71.0648C203.328 71.9687 203.771 72.8241 204.325 73.6069C203.78 74.0716 202.918 73.8252 202.918 73.8252L203.009 71.0648Z" fill="#BA4D3C"/>
<path d="M191.542 83.5143C191.641 82.6688 193.375 81.2207 194.367 81.6142C195.36 82.0078 197.007 84.4887 198.61 84.5886C200.214 84.6886 200.58 81.7487 201.426 82.0395C202.273 82.3302 203.245 83.2053 203.5 83.8431C203.794 84.5788 203.779 87.3349 203.023 86.9773C203.023 86.9773 201.987 85.011 201.334 84.778C200.725 84.5605 199.462 85.363 198.815 85.3666C198.114 85.3701 196.712 84.5042 196.07 84.7879C195.426 85.0723 194.843 86.8745 194.139 86.8421C193.085 86.7929 191.418 84.5619 191.542 83.5143Z" fill="#3F6EEC"/>
<g opacity="0.4">
<path d="M191.542 83.5143C191.641 82.6688 193.375 81.2207 194.367 81.6142C195.36 82.0078 197.007 84.4887 198.61 84.5886C200.214 84.6886 200.58 81.7487 201.426 82.0395C202.273 82.3302 203.245 83.2053 203.5 83.8431C203.794 84.5788 203.779 87.3349 203.023 86.9773C203.023 86.9773 201.987 85.011 201.334 84.778C200.725 84.5605 199.462 85.363 198.815 85.3666C198.114 85.3701 196.712 84.5042 196.07 84.7879C195.426 85.0723 194.843 86.8745 194.139 86.8421C193.085 86.7929 191.418 84.5619 191.542 83.5143Z" fill="white"/>
</g>
<path d="M201.774 102.184C204.249 103.257 206.237 101.023 206.237 101.023L202.684 98.341L201.014 100.875L201.774 102.184Z" fill="#CE7A63"/>
<path d="M202.686 98.3411L206.232 101.017L207.522 99.281L206.027 96.9599L202.686 98.3411Z" fill="#CE7A63"/>
<path d="M184.141 86.8407C184.133 88.7725 184.167 90.6937 184.237 92.6297C184.293 94.0947 184.356 95.5555 184.463 97.0205C184.571 98.482 184.679 99.9611 184.86 101.452L184.919 102.001L184.949 102.279L185.019 102.739C185.093 103.147 185.216 103.544 185.39 103.918C185.661 104.501 186.076 105.001 186.599 105.372C187.167 105.761 187.834 105.973 188.524 105.977C188.969 105.985 189.418 105.918 189.844 105.776L202.342 102.409C202.342 102.409 201.478 100.329 201.626 100.091C200.933 100.206 194.354 100.692 190.1 100.996L190.156 99.928C190.174 99.4345 190.679 87.4898 190.679 87.4898C190.675 85.8769 188.746 83.9261 187.137 83.9036C185.494 83.8811 184.144 85.2018 184.141 86.8407Z" fill="#3F6EEC"/>
<g opacity="0.1">
<path d="M184.141 86.8407C184.133 88.7725 184.167 90.6937 184.237 92.6297C184.293 94.0947 184.356 95.5555 184.463 97.0205C184.571 98.482 184.679 99.9611 184.86 101.452L184.919 102.001L184.949 102.279L185.019 102.739C185.093 103.147 185.216 103.544 185.39 103.918C185.661 104.501 186.076 105.001 186.599 105.372C187.167 105.761 187.834 105.973 188.524 105.977C188.969 105.985 189.418 105.918 189.844 105.776L202.342 102.409C202.342 102.409 201.478 100.329 201.626 100.091C200.933 100.206 194.354 100.692 190.1 100.996L190.156 99.928C190.174 99.4345 190.679 87.4898 190.679 87.4898C190.675 85.8769 188.746 83.9261 187.137 83.9036C185.494 83.8811 184.144 85.2018 184.141 86.8407Z" fill="white"/>
</g>
<path d="M201.626 100.091C201.675 100.084 201.693 100.076 201.678 100.073C201.652 100.065 201.634 100.073 201.626 100.091Z" fill="#3F6EEC"/>
<path d="M195.225 72.9267C195.225 72.9267 196.607 72.2509 196.606 69.5433C196.606 69.5433 198.045 68.7069 198.159 66.8596C198.159 66.8596 205.18 66.1606 204.076 63.6691C202.972 61.1777 198.035 60.247 198.035 60.247C198.035 60.247 199.471 62.7581 194.896 64.7132C190.32 66.6682 193.959 72.7233 193.959 72.7233L195.225 72.9267Z" fill="#263238"/>
<path d="M192.991 67.0955C192.991 67.0955 190.931 65.7269 191.742 64.9321C192.552 64.1373 192.991 67.0955 192.991 67.0955Z" fill="#263238"/>
<path d="M192.824 73.2345C193.295 74.0349 194.062 74.6171 194.96 74.8565C196.156 75.1564 196.725 74.0856 196.369 72.9719C196.05 71.9736 195.042 70.6086 193.855 70.7965C192.668 70.9838 192.257 72.2397 192.824 73.2345Z" fill="#CE7A63"/>
<path d="M194.774 102.426C192.299 103.499 190.311 101.265 190.311 101.265L193.864 98.583L195.534 101.117L194.774 102.426Z" fill="#CE7A63"/>
<path d="M193.864 98.5825L190.317 101.258L189.026 99.5223L190.521 97.2019L193.864 98.5825Z" fill="#CE7A63"/>
<path d="M211.689 101.695L211.63 102.244L211.6 102.522L211.53 102.982C211.456 103.389 211.334 103.786 211.159 104.161C210.889 104.743 210.473 105.244 209.95 105.615C209.412 105.981 208.786 106.193 208.133 106.215C208.1 106.219 208.063 106.219 208.025 106.219C207.58 106.226 207.131 106.16 206.705 106.019L197.827 103.627L194.208 102.651C194.208 102.651 194.212 102.64 194.223 102.614C194.311 102.395 194.787 101.227 194.909 100.645C194.942 100.493 194.954 100.378 194.924 100.333C194.95 100.337 194.983 100.344 195.027 100.348C195.302 100.385 195.917 100.441 196.745 100.508C197.879 100.604 199.415 100.723 201.039 100.841C201.28 100.86 201.525 100.879 201.773 100.897C203.238 101.008 204.736 101.116 206.053 101.208C206.187 101.22 207.003 101.247 207.132 101.258L205.797 87.7316C205.797 87.6873 205.871 87.6429 205.879 87.5978C205.923 86.8523 206.361 86.0554 206.973 85.4133C207.036 85.3429 207.102 85.2796 207.169 85.2169C207.191 85.2204 207.217 85.2247 207.24 85.2317C207.797 85.1944 208.287 85.3802 208.7 85.6464C209.55 86.1941 210.083 87.117 210.212 88.1202C210.64 91.448 211.81 100.693 211.689 101.695Z" fill="#3F6EEC"/>
<g opacity="0.1">
<path d="M211.689 101.695L211.63 102.244L211.6 102.522L211.53 102.982C211.456 103.389 211.334 103.786 211.159 104.161C210.889 104.743 210.473 105.244 209.95 105.615C209.412 105.981 208.786 106.193 208.133 106.215C208.1 106.219 208.063 106.219 208.025 106.219C207.58 106.226 207.131 106.16 206.705 106.019L197.827 103.627L194.208 102.651C194.208 102.651 194.212 102.64 194.223 102.614C194.311 102.395 194.787 101.227 194.909 100.645C194.942 100.493 194.954 100.378 194.924 100.333C194.95 100.337 194.983 100.344 195.027 100.348C195.302 100.385 195.917 100.441 196.745 100.508C197.879 100.604 199.415 100.723 201.039 100.841C201.28 100.86 201.525 100.879 201.773 100.897C203.238 101.008 204.736 101.116 206.053 101.208C206.187 101.22 207.003 101.247 207.132 101.258L205.797 87.7316C205.797 87.6873 205.871 87.6429 205.879 87.5978C205.923 86.8523 206.361 86.0554 206.973 85.4133C207.036 85.3429 207.102 85.2796 207.169 85.2169C207.191 85.2204 207.217 85.2247 207.24 85.2317C207.797 85.1944 208.287 85.3802 208.7 85.6464C209.55 86.1941 210.083 87.117 210.212 88.1202C210.64 91.448 211.81 100.693 211.689 101.695Z" fill="white"/>
</g>
<path d="M194.922 100.333C194.874 100.326 194.855 100.319 194.87 100.315C194.896 100.307 194.915 100.314 194.922 100.333Z" fill="#3F6EEC"/>
<path d="M128.703 51.1354C128.703 51.7739 128.185 52.292 127.546 52.292C126.908 52.292 126.39 51.7739 126.39 51.1354C126.39 50.4968 126.908 49.9787 127.546 49.9787C128.186 49.9787 128.703 50.4961 128.703 51.1354Z" fill="white"/>
<path d="M133.143 51.1354C133.143 51.7739 132.626 52.292 131.987 52.292C131.348 52.292 130.83 51.7739 130.83 51.1354C130.83 50.4968 131.348 49.9787 131.987 49.9787C132.625 49.9787 133.143 50.4961 133.143 51.1354Z" fill="white"/>
<path d="M137.585 51.1354C137.585 51.7739 137.067 52.292 136.428 52.292C135.789 52.292 135.271 51.7739 135.271 51.1354C135.271 50.4968 135.79 49.9787 136.428 49.9787C137.067 49.9787 137.585 50.4961 137.585 51.1354Z" fill="white"/>
<path d="M239.862 276.842L238.858 288.553L232.573 288.184L233.038 276.014L239.862 276.842Z" fill="#CE7A63"/>
<path d="M293.506 272.633L298.323 283.256L292.807 286.446L287.308 275.73L293.506 272.633Z" fill="#CE7A63"/>
<path d="M251.606 171.475C251.606 171.475 237.161 218.65 234.4 233.097C232.217 244.517 232.06 279.726 232.06 279.726L240.458 280.45C240.458 280.45 242.391 263.458 244.339 249.397C245.191 243.246 246.469 237.654 247.512 234.293C250.931 223.276 263.392 204.415 267.387 193.629C268.767 189.903 269.202 172.032 269.202 172.032L251.606 171.475Z" fill="#263238"/>
<path d="M241.924 278.39L230.897 277.466L230.914 281.747L241.202 282.482L241.924 278.39Z" fill="#3F6EEC"/>
<path opacity="0.5" d="M261.571 187.066L268.98 193.263C267.258 196.61 259.94 207.987 257.495 211.942C256.647 202.465 261.571 187.066 261.571 187.066Z" fill="black"/>
<path d="M254.219 171.475C254.219 171.475 263.205 224.931 267.916 239.83C271.27 250.437 288.573 279.375 288.573 279.375L295.433 275.584C295.433 275.584 288.891 259.879 284.351 247.686C282.803 243.526 280.931 239.771 280.384 237.192C278.046 226.174 278.961 203.379 278.322 192.115C278.12 188.542 277.131 171.892 277.131 171.892L254.219 171.475Z" fill="#263238"/>
<path d="M295.423 272.767L297.222 276.608L288.426 281.515L286.417 277.785L295.423 272.767Z" fill="#3F6EEC"/>
<path d="M230.12 288.384C229.396 288.375 228.647 288.224 228.408 287.887C228.284 287.69 228.289 287.432 228.419 287.243C228.517 287.072 228.674 286.95 228.854 286.902C229.827 286.626 231.858 287.896 231.948 287.952C231.999 287.984 232.025 288.046 232.014 288.107C232.003 288.168 231.959 288.215 231.902 288.227C231.314 288.335 230.718 288.388 230.12 288.384ZM229.195 287.156C229.106 287.153 229.017 287.164 228.931 287.19C228.816 287.21 228.716 287.285 228.66 287.394C228.557 287.577 228.593 287.666 228.633 287.718C228.902 288.128 230.372 288.156 231.456 288.024C230.759 287.584 229.991 287.29 229.195 287.156Z" fill="#3F6EEC"/>
<path d="M231.881 288.225C231.862 288.23 231.842 288.228 231.824 288.218C231.127 287.878 229.729 286.506 229.855 285.804C229.869 285.635 229.988 285.43 230.369 285.394C230.646 285.366 230.923 285.46 231.137 285.656C231.877 286.319 232.031 288.008 232.038 288.086C232.042 288.139 232.018 288.19 231.976 288.219C231.946 288.234 231.912 288.236 231.881 288.225ZM230.46 285.676L230.381 285.667C230.133 285.687 230.116 285.794 230.106 285.832C230.07 286.256 230.986 287.327 231.708 287.794C231.639 287.084 231.37 286.411 230.937 285.868C230.804 285.744 230.635 285.676 230.46 285.676Z" fill="#3F6EEC"/>
<path d="M232.498 287.359L238.858 287.434C239.097 287.437 239.305 287.617 239.357 287.869L240.499 293.436C240.603 293.929 240.316 294.416 239.858 294.524C239.799 294.538 239.739 294.545 239.679 294.545C237.387 294.476 235.349 294.316 232.494 294.288C229.126 294.249 229.98 294.692 226.02 294.706C223.634 294.711 223.202 291.795 224.214 291.664C228.845 291.093 229.327 289.598 231.116 287.84C231.505 287.502 231.997 287.331 232.498 287.359Z" fill="#263238"/>
<path d="M290.855 287.714C290.213 288.068 289.488 288.308 289.131 288.127C288.937 288.014 288.829 287.782 288.862 287.549C288.874 287.348 288.959 287.161 289.098 287.027C289.835 286.296 292.174 286.41 292.277 286.416C292.336 286.419 292.386 286.461 292.403 286.521C292.42 286.581 292.401 286.644 292.357 286.684C291.885 287.074 291.383 287.419 290.855 287.714ZM289.508 287.083C289.428 287.126 289.355 287.18 289.29 287.245C289.197 287.32 289.142 287.437 289.14 287.562C289.128 287.776 289.199 287.838 289.256 287.863C289.671 288.094 290.977 287.383 291.875 286.725C291.07 286.683 290.268 286.805 289.508 287.083Z" fill="#3F6EEC"/>
<path d="M292.337 286.692C292.323 286.707 292.304 286.715 292.283 286.715C291.523 286.761 289.697 286.239 289.503 285.552C289.442 285.395 289.458 285.152 289.776 284.93C290.009 284.766 290.294 284.712 290.566 284.779C291.507 284.999 292.373 286.425 292.414 286.491C292.441 286.537 292.442 286.594 292.418 286.64C292.398 286.668 292.369 286.686 292.337 286.692ZM289.98 285.135L289.907 285.167C289.697 285.308 289.729 285.412 289.736 285.45C289.888 285.845 291.159 286.34 291.997 286.395C291.629 285.798 291.101 285.334 290.483 285.067C290.312 285.024 290.133 285.048 289.98 285.135Z" fill="#3F6EEC"/>
<path d="M292.505 285.613L298.137 282.502C298.35 282.384 298.611 282.441 298.766 282.639L302.185 287.02C302.492 287.407 302.45 287.983 302.093 288.308C302.047 288.349 301.997 288.386 301.945 288.416C299.895 289.5 298.032 290.377 295.506 291.777C292.523 293.426 293.467 293.393 289.986 295.384C287.887 296.581 286.242 294.203 287.075 293.581C290.906 290.758 290.683 289.188 291.496 286.73C291.692 286.237 292.051 285.839 292.505 285.613Z" fill="#263238"/>
<path d="M239.431 137.077L233.273 140.963C232.876 141.382 220.198 129.084 220.198 129.084C220.198 129.084 219.764 125.259 219.591 124.638L219.163 123.099C219.115 122.927 219.086 122.751 219.075 122.574L219.073 122.532C218.998 121.216 217.909 120.188 216.591 120.187C216.097 120.186 215.614 120.333 215.205 120.608L212.32 122.54C211.465 123.112 211.05 124.152 211.277 125.155L217.653 130.602C217.653 130.602 226.444 147.163 230.924 149.769C235.058 152.174 243.979 142.479 243.979 142.479L239.431 137.077Z" fill="#CE7A63"/>
<path d="M250.574 131.997C249.54 130.848 248.424 129.846 246.207 130.003C242.77 130.247 236.017 137.938 236.017 137.938L242.126 147.665C242.126 147.665 250.139 140.605 251.431 137.684C252.44 135.404 251.831 133.394 250.574 131.997Z" fill="#3F6EEC"/>
<path opacity="0.5" d="M250.574 131.997C249.54 130.848 248.424 129.846 246.207 130.003C242.77 130.247 236.017 137.938 236.017 137.938L242.126 147.665C242.126 147.665 250.139 140.605 251.431 137.684C252.44 135.404 251.831 133.394 250.574 131.997Z" fill="black"/>
<path opacity="0.2" d="M245.582 144.463C245.338 140.593 245.196 136.365 245.196 136.365L248.128 141.904C247.298 142.781 246.412 143.662 245.582 144.463Z" fill="black"/>
<path d="M257.971 130.602L254.854 129.523C254.873 128.642 254.607 127.75 254.193 126.873C253.933 126.33 253.642 125.803 253.32 125.295L256.269 120.323L258.438 116.676C258.864 120.308 260.095 126.463 262.84 128.757L257.971 130.602Z" fill="#CE7A63"/>
<path opacity="0.2" d="M253.32 125.295C253.642 125.81 253.934 126.344 254.193 126.893C255.641 126.021 257.132 123.612 256.782 121.94C256.672 121.383 256.5 120.841 256.269 120.322L253.32 125.295Z" fill="black"/>
<path d="M277.77 132.346L277.015 172.723L274.18 173.151C266.553 174.305 258.767 173.782 251.363 171.62L244.605 133.405C244.247 131.617 245.596 129.943 247.419 129.91L274.797 129.432C276.427 129.404 277.765 130.716 277.77 132.346Z" fill="#3F6EEC"/>
<path opacity="0.5" d="M277.77 132.346L277.015 172.723L274.18 173.151C266.553 174.305 258.767 173.782 251.363 171.62L244.605 133.405C244.247 131.617 245.596 129.943 247.419 129.91L274.797 129.432C276.427 129.404 277.765 130.716 277.77 132.346Z" fill="black"/>
<path opacity="0.2" d="M277.34 152.952C269.55 143.958 269.55 137.437 269.55 137.437L277.726 139.986L277.34 152.952Z" fill="black"/>
<path d="M249.395 107.259C249.395 107.259 244.277 107.931 245.349 104.015C245.349 104.015 245.576 105.19 251.158 104.988C256.741 104.786 249.395 107.259 249.395 107.259Z" fill="#263238"/>
<path opacity="0.9" d="M249.395 107.259C249.395 107.259 244.277 107.931 245.349 104.015C245.349 104.015 245.576 105.19 251.158 104.988C256.741 104.786 249.395 107.259 249.395 107.259Z" fill="black"/>
<path d="M260.363 113.739C259.14 118.943 258.698 122.043 255.575 124.376C252.53 126.707 248.171 126.128 245.84 123.082C244.982 121.961 244.486 120.605 244.418 119.196C244.083 114.329 246.133 106.635 251.651 105.245C255.386 104.194 259.266 106.371 260.316 110.106C260.65 111.292 260.666 112.545 260.363 113.739Z" fill="#CE7A63"/>
<path d="M252.11 114.132C252.042 114.559 251.751 114.87 251.473 114.809C251.196 114.747 251.027 114.395 251.095 113.969C251.163 113.542 251.454 113.225 251.739 113.292C252.023 113.361 252.185 113.706 252.11 114.132Z" fill="#263238"/>
<path d="M247.258 113.479C247.19 113.905 246.906 114.217 246.621 114.155C246.337 114.094 246.175 113.742 246.243 113.309C246.311 112.876 246.602 112.572 246.887 112.633C247.171 112.693 247.334 113.045 247.258 113.479Z" fill="#263238"/>
<path d="M248.767 113.899C248.03 115.139 247.133 116.277 246.098 117.281C246.733 118.087 248.08 117.96 248.08 117.96L248.767 113.899Z" fill="#BA4D3C"/>
<path d="M252.148 118.072C251.299 118.893 250.115 119.269 248.949 119.088C248.877 119.064 248.8 119.102 248.776 119.174C248.752 119.246 248.79 119.324 248.862 119.347C248.878 119.353 248.896 119.355 248.913 119.354C249.092 119.385 249.273 119.402 249.454 119.405C250.534 119.435 251.578 119.021 252.343 118.26C252.392 118.207 252.392 118.125 252.343 118.072" fill="#263238"/>
<path d="M253.878 112.773C253.918 112.783 253.96 112.783 254 112.773C254.124 112.712 254.175 112.562 254.113 112.438C254.112 112.434 254.11 112.431 254.108 112.428C253.746 111.691 253.041 111.183 252.228 111.073C252.09 111.061 251.969 111.163 251.958 111.301C251.958 111.304 251.957 111.306 251.957 111.309C251.946 111.447 252.048 111.568 252.186 111.579C252.189 111.579 252.191 111.58 252.193 111.58C252.824 111.671 253.372 112.063 253.661 112.63C253.699 112.717 253.784 112.773 253.878 112.773Z" fill="#263238"/>
<path d="M245.46 111.534C245.543 111.536 245.623 111.496 245.669 111.426C246.035 110.875 246.635 110.525 247.295 110.48C247.435 110.457 247.53 110.325 247.508 110.185C247.49 110.076 247.404 109.99 247.296 109.972C246.473 110.018 245.72 110.449 245.264 111.134C245.183 111.247 245.209 111.403 245.321 111.484C245.322 111.485 245.323 111.486 245.324 111.487C245.363 111.517 245.41 111.534 245.46 111.534Z" fill="#263238"/>
<path opacity="0.9" d="M260.452 132.303L258.826 135.554L258.341 136.26L260.891 162.206L257.49 165.217L254.093 161.737L256.817 136.258L256.277 135.236L254.812 132.299L255.972 130.599L258.986 129.924L260.452 132.303Z" fill="white"/>
<path d="M263.494 127.493L257.856 129.663L253.29 127.673L250.88 130.407L253.236 136.05L257.892 131.211L262.506 136.262L265.81 129.95L263.494 127.493Z" fill="#3F6EEC"/>
<path opacity="0.3" d="M263.494 127.493L257.856 129.663L253.29 127.673L250.88 130.407L253.236 136.05L257.892 131.211L262.506 136.262L265.81 129.95L263.494 127.493Z" fill="black"/>
<path d="M283.238 141.687C283.238 141.687 289.433 150.11 289.235 153.391C288.919 158.64 277.464 170.821 277.464 170.821L276.027 175.408C275.848 175.982 275.452 176.464 274.925 176.752L271.242 178.764C270.175 179.347 268.839 179.008 268.179 177.987L267.327 176.67C266.761 175.793 266.848 174.647 267.541 173.867L268.979 172.249C269.048 172.171 269.122 172.099 269.2 172.031L273.913 168.84C273.913 168.84 277.609 162.261 279.638 157.521C280.396 155.751 280.912 154.123 280.9 152.994C280.874 150.48 276.435 143.982 276.435 143.982L283.238 141.687Z" fill="#CE7A63"/>
<path d="M271.055 129.995C272.316 129.103 275.245 129.291 276.618 130C280.244 131.871 286.086 142.679 286.086 142.679L275.573 148.439C275.573 148.439 269.293 138.992 268.99 135.247C268.865 133.698 269.785 130.894 271.055 129.995Z" fill="#3F6EEC"/>
<path opacity="0.5" d="M271.055 129.995C272.316 129.103 275.245 129.291 276.618 130C280.244 131.871 286.086 142.679 286.086 142.679L275.573 148.439C275.573 148.439 269.293 138.992 268.99 135.247C268.865 133.698 269.785 130.894 271.055 129.995Z" fill="black"/>
<path d="M207.31 125.426L205.255 125.778L205.38 126.511L207.435 126.16L207.31 125.426Z" fill="#263238"/>
<path opacity="0.2" d="M207.31 125.426L205.255 125.778L205.38 126.511L207.435 126.16L207.31 125.426Z" fill="white"/>
<path d="M213.911 124.123L207.078 125.292L207.264 126.378L214.097 125.209L213.911 124.123Z" fill="#263238"/>
<path opacity="0.4" d="M213.911 124.123L207.078 125.292L207.264 126.378L214.097 125.209L213.911 124.123Z" fill="white"/>
<path d="M221.769 122.645L213.308 124.091L213.537 125.435L221.999 123.989L221.769 122.645Z" fill="#263238"/>
<path opacity="0.5" d="M221.769 122.645L213.308 124.091L213.537 125.435L221.999 123.989L221.769 122.645Z" fill="white"/>
<path d="M222.468 122.385L221.595 122.534L221.873 124.16L222.746 124.01L222.468 122.385Z" fill="#3F6EEC"/>
<path d="M259.304 118.178C259.304 118.178 257.273 116.998 257.533 112.784C257.533 112.784 255.429 111.348 255.432 108.462C255.432 108.462 244.851 106.723 246.762 102.947C248.674 99.1717 256.25 98.1812 256.25 98.1812C256.25 98.1812 253.832 101.956 260.586 105.424C267.339 108.892 261.243 117.978 261.243 117.978L259.304 118.178Z" fill="#263238"/>
<path d="M263.247 109.309C263.247 109.309 266.501 107.371 265.348 106.058C264.195 104.745 263.247 109.309 263.247 109.309Z" fill="#263238"/>
<path d="M261.612 118.445C261.076 119.513 260.157 120.339 259.038 120.758C257.569 121.291 256.798 119.991 257.178 118.543C257.525 117.23 258.704 115.383 260.193 115.479C261.683 115.575 262.263 117.119 261.612 118.445Z" fill="#CE7A63"/>
</svg>
